<svg xmlns="http://www.w3.org/2000/svg" width="1430.17" height="624.36" viewBox="0 0 1430.17 624.36"><title>Logo-Black</title><path d="M1358.6,219.6c7.91-33.07,38.93-43.87,60.66-38.09,27.45,7.31,40.28,34.44,35.93,56a9.73,9.73,0,0,0,2.46,1.26c10.84,2.11,21.69,4.15,32.54,6.22,8.74,1.67,17.52,3.16,26.21,5.06,18.07,4,29.2,20,28.58,35.8a119.17,119.17,0,0,1-2.26,16.66c-2.11,11.51-4.44,23-6.69,34.45-2.6,13.26-5.25,26.51-7.8,39.77-2.46,12.79-4.77,25.61-7.23,38.39-1.49,7.76-3.22,15.48-4.72,23.23-1.48,7.6-2.81,15.22-4.21,22.83-1.43,7.78-2.85,15.57-4.31,23.35q-2.88,15.3-5.82,30.6-2,10.2-4,20.38-2.42,12.12-4.9,24.22c-2.9,14-17.78,27.38-34.26,27.42-6.39,0-12.46-1.46-18.63-2.58-11.67-2.12-23.32-4.39-35-6.63q-16.51-3.17-33-6.38L1343.55,566c-11.32-2.21-22.63-4.47-34-6.62-9.88-1.88-19.78-3.62-29.67-5.47-7.13-1.33-14.24-2.73-21.35-4.14-7.92-1.56-15.83-3.17-23.75-4.73-15.06-3-24.81-11.93-29.37-26.44-2.07-6.59-1.55-13.37-.17-20.11,2.31-11.3,4.49-22.63,6.71-33.95s4.47-22.63,6.62-34c1.88-9.88,3.61-19.79,5.48-29.67,1.38-7.29,2.91-14.54,4.3-21.83,1.92-10,3.78-20.08,5.68-30.12q2-10.69,4.12-21.36,2.89-14.8,5.8-29.59,3.91-19.88,7.81-39.77c1.42-7.28,2.53-14.63,4.19-21.85,3.45-15,13.16-24.21,27.77-28.06,5.4-1.42,11.19-1,16.73,0,11.18,2.09,22.31,4.41,33.47,6.58C1342.05,216.54,1350.16,218,1358.6,219.6Zm12.15,102.34c-4.34-.13-6.37.91-7.26,4.3a93.88,93.88,0,0,0-2.41,12.6c-.46,3.89,1.56,6.34,5.39,7.09q18.17,3.56,36.37,7c13.11,2.47,26.25,4.76,39.35,7.29,10.5,2,20.94,4.33,31.42,6.46a6.22,6.22,0,0,0,7.4-4.29,24.92,24.92,0,0,0,1-3.81c.57-2.91,1.07-5.83,1.59-8.75a6.05,6.05,0,0,0-3.68-6.78,24.12,24.12,0,0,0-4.31-1c-6-1.11-12-2.13-18-3.28q-19.88-3.83-39.74-7.77c-11.14-2.2-22.27-4.46-33.42-6.63C1379.77,323.42,1375.05,322.69,1370.74,321.94ZM1357.06,394c-5-.18-7,1.45-8,6.14q-1,4.83-1.93,9.68c-.79,4.12,1.13,7.21,5.27,8.14,4.81,1.09,9.66,2,14.51,3,10.18,2,20.37,3.88,30.55,5.84,7.11,1.37,14.21,2.8,21.32,4.15,13.42,2.56,26.85,5.05,40.26,7.63,4.35.84,6.92-.5,8.13-4.91a109.26,109.26,0,0,0,2.6-12,7.34,7.34,0,0,0-1.11-4.18c-1.33-2.45-4-2.83-6.38-3.28-9.87-1.85-19.77-3.54-29.65-5.39s-19.7-3.84-29.55-5.77q-16.71-3.28-33.42-6.57C1365.33,395.53,1361,394.74,1357.06,394Zm-14.73,72c-3.51-.06-6.14,1.94-7.08,5.84-.81,3.35-1.14,6.81-1.8,10.2-.8,4.12.59,6.75,4.66,7.92,2.21.64,4.55.79,6.82,1.22,17.32,3.32,34.64,6.6,51.95,10,16,3.14,32,6.43,48,9.63,5.52,1.11,8-1.79,9-6.16.78-3.2,1.35-6.45,1.95-9.69.76-4.14-1.12-7.09-5.36-8-5.64-1.21-11.33-2.17-17-3.29-14.39-2.85-28.77-5.76-43.16-8.57-12-2.34-24-4.6-35.93-6.88C1350.35,467.45,1346.29,466.72,1342.32,466ZM1268,467.63c-.08,11.31,9.35,18.19,18.18,18.42,9.32.24,18.62-7.66,18.51-18.18-.1-10.33-7.21-18.88-18.39-18.64C1275.35,449.46,1267.54,458.63,1268,467.63Zm50.2-72c.65-8.76-6.2-18.3-18-18.44-10.4-.12-18,7.82-18.32,18.24a18.3,18.3,0,0,0,18.63,18.48C1308.84,413.88,1318.66,406.95,1318.18,395.62Zm13.94-72.32c.68-9.4-7.85-18.32-18.21-18.28a18.45,18.45,0,0,0-18.13,18.46c.24,10.21,7.59,18.42,18.82,18.21A17.5,17.5,0,0,0,1332.12,323.3Zm75.07-76.16c8.59,1.34,18.19-9,18.19-17.88,0-9.84-9.14-18.5-18.25-18.53-9.73,0-18.18,8.74-18.39,17.8C1388.51,238.46,1397.29,247.83,1407.19,247.14Z" transform="translate(-114.82 -166.21)" style="fill:#fec30b"/><path d="M403,784l-3.75,2.54,1.84,2.44a12.61,12.61,0,0,1-3.24,1c-4.83.1-9.66.1-14.49,0-2.81,0-3.77-.75-3.29-3.59.65-3.89-.25-7.64-.14-11.46.12-4,0-8,0-12s-.18-8,.06-12c.18-2.85-.09-5.66-.07-8.49s.27-5.64.11-8.49c-.14-2.55-.91-5.31.83-7.74a1.64,1.64,0,0,0,0-1.46c-1.9-3.28-.14-6.87-1-10.24a2.94,2.94,0,0,1,0-1.49c1.71-5.49-1.58-11.17.64-16.7.38-.93-.56-2.4-.85-3.44,2.26-2,4,0,6.07.19l3.06-2.11c3.9.26,7.8-.24,11.75.87,2.34.66,5.1-.17,8.26-.36a16.26,16.26,0,0,1,1.88,3.14c1,2.7,1.72,5.5,2.59,8.26s1.78,5.16,2.48,7.8c.62,2.34-.26,4.1-2.86,5,3.66.14,5.05,2.69,5.88,5.34,2.5,8,4.7,16,7.12,24,1,3.38,2.22,6.7,3.49,10a23.73,23.73,0,0,0,2.32,3.64l2-3.27-2.83-.72,4-14.14c.91-3.24,1.79-6.49,5.23-8.18-2.21-5,.35-9.28,1.59-13.62,1.09-3.84,3-7.45,4.29-11.24.46-1.34.08-2.94.38-4.36a30.51,30.51,0,0,1,1.52-4.56c.91-2.39,1.9-4.75,2.91-7.29h16.37l-2,3.41,2.26,1.15c2.89-1.5,5.86-3.08,8.87-4.58a2.55,2.55,0,0,1,3.52,1.7,6.42,6.42,0,0,1,0,1.49c0,10,0,20,0,30.25l-5.84,1.91c0,3.29-1.81,7.06,1.4,10.45.49-.18.94-.32,1.37-.49s.87-.39,1.64-.73c.37.5,1,1,1.1,1.57a31.63,31.63,0,0,1,0,4.34c0,1.4-.16,2.8-.24,4.2a3.18,3.18,0,0,1-.08,1.18,8.44,8.44,0,0,1-1.27,1.4c1.42,1.24,2.58,2.75,1,4.66,2,5.47.27,11.16,1.11,16.83l-2.88,3.37,3.23,2.64-3.82,3.81,3.19.44-.43,8.88a9.56,9.56,0,0,1-2.91.83c-7.31.09-14.63,0-22.26,0v-7.07l5.68,1.25-6.08-5.68c.82-3.09.05-6.22.08-9.37,0-3.33,0-6.66,0-10s0-6.61,0-10.33a6.8,6.8,0,0,0-3,5.31,12.7,12.7,0,0,1,0,1.5c-.81,4.7-2,5.93-6.83,6.79.72.46,1.4.86,2.06,1.31s1.35,1,2.36,1.73l-6,9.34c.21,1.55,1.45,3.94-.82,6-.12.11-.33.28-.3.38.65,2.52,1.11,4.48-2.7,5.11-1.9.31-3.45,2.71-5.35,4.33l-5.92-5.32-2.87,3c-.66-.39-2.33-1.24-3.87-2.29s-2.82-2.07-2.85-4.32c0-1.28-1.12-2.59-1.89-3.8-1.16-1.83.58-4.1-1.43-6-1.33-1.28-1.51-3.8-2.06-5.81-.59-2.17-1.07-4.38-1.46-6.59-.1-.55.37-1.21.59-1.85-2.59-1.69-3.08-4.8-4.45-8.26-.59,1.22-1.13,1.83-1.14,2.44-.07,4.5,0,9,0,13.79l-3,.86c4.53,1.74,2.53,5.26,3,8.58h-4.51l-1.35,2.56c.88,2.11,3.87,3.45,2.73,6.52Zm66.34-80.82,4.39-4.61c-3.35-.76-5.92.91-8-.47l-2.26,3.62Zm-73.64,45.41c-1-2.64-2.76-.36-4-.74-1.57-.5-2.92-1.21-4.51-.43l-.93,3.72,5.23-1.82,3.08,1.44Zm63.52-37.06,5.88-3.28-.21-1a13.59,13.59,0,0,0-5.92.21Zm-21.43,52.65v-1.28l-3.66-1v3.35Zm-51.08-6.4,4.2.24-2.51-3.82Zm-.81,24.18L384.42,779l-1.85,2.78Zm30.9-23.31c-.88-1.51-2-2.12-3.67-1.2C414,758.91,415.18,759.52,416.83,758.6Zm39.08-48.77-.91.55.27,2.48,2.77-1.47Zm-52-.28-.2-.51-2.91.59.93,1.54ZM435.09,782c-2-2.07-2-2.07-3.18-.26ZM467,751.83c.24-.81.49-1.62.68-2.44,0,0-.61-.37-.82-.28C465.27,749.8,466.2,750.77,467,751.83Zm.18-40.45.4.69,2.32-1.43-.41-.69Zm6,35.73c-.37-.43-.6-.94-.91-1s-.76.32-1.14.5a6.74,6.74,0,0,0,.94,1.24C472.1,747.93,472.65,747.45,473.13,747.12Zm2.51-38.3-.06-.84-2.26.35,0,.49ZM403,729.42l.53.45,1.29-1.37-.64-.54Zm-12.36,54.39,0-.84-2.28.36,0,.49Zm75.16-1v-.65c-.5,0-1,.1-1.49.16a.89.89,0,0,0,0,.28C464.82,782.7,465.31,782.76,465.8,782.83Zm-60-87.39-.29-.32-.31.29.44.32Zm-16.08-2.09c-.09,0-.21-.17-.28-.14s-.22.18-.32.28l.6.17Z" transform="translate(-114.82 -166.21)" style="fill:#fec30b"/><path d="M290,784l-3.75,2.54,1.84,2.44a12.61,12.61,0,0,1-3.24,1c-4.83.1-9.66.1-14.49,0-2.81,0-3.77-.75-3.29-3.59.65-3.89-.25-7.64-.14-11.46.12-4,0-8,0-12s-.18-8,.06-12c.18-2.85-.09-5.66-.07-8.49s.27-5.64.11-8.49c-.14-2.55-.91-5.31.83-7.74a1.64,1.64,0,0,0,0-1.46c-1.9-3.28-.14-6.87-1-10.24a2.94,2.94,0,0,1,0-1.49c1.71-5.49-1.58-11.17.64-16.7.38-.93-.56-2.4-.85-3.44,2.26-2,4,0,6.07.19l3.06-2.11c3.9.26,7.8-.24,11.75.87,2.34.66,5.1-.17,8.27-.36a16.26,16.26,0,0,1,1.88,3.14c1,2.7,1.72,5.5,2.59,8.26s1.78,5.16,2.48,7.8c.62,2.34-.26,4.1-2.86,5,3.66.14,5.05,2.69,5.88,5.34,2.5,8,4.7,16,7.12,24,1,3.38,2.22,6.7,3.49,10a23.73,23.73,0,0,0,2.32,3.64l2-3.27-2.83-.72,4-14.14c.91-3.24,1.79-6.49,5.23-8.18-2.21-5,.35-9.28,1.59-13.62,1.09-3.84,3-7.45,4.29-11.24.46-1.34.08-2.94.38-4.36a30.5,30.5,0,0,1,1.52-4.56c.91-2.39,1.9-4.75,2.91-7.29h16.37l-2,3.41,2.26,1.15c2.89-1.5,5.86-3.08,8.87-4.58a2.55,2.55,0,0,1,3.52,1.7,6.42,6.42,0,0,1,0,1.49c0,10,0,20,0,30.25l-5.84,1.91c0,3.29-1.81,7.06,1.4,10.45.49-.18.94-.32,1.37-.49s.87-.39,1.64-.73c.37.5,1,1,1.1,1.57a31.65,31.65,0,0,1,0,4.34c0,1.4-.16,2.8-.24,4.2a3.18,3.18,0,0,1-.08,1.18,8.44,8.44,0,0,1-1.27,1.4c1.42,1.24,2.58,2.75,1,4.66,2,5.47.27,11.16,1.11,16.83l-2.88,3.37,3.23,2.64-3.82,3.81,3.19.44-.43,8.88a9.56,9.56,0,0,1-2.91.83c-7.31.09-14.63,0-22.26,0v-7.07l5.68,1.25-6.08-5.68c.82-3.09.05-6.22.08-9.37,0-3.33,0-6.66,0-10V748.82a6.8,6.8,0,0,0-3,5.31,12.7,12.7,0,0,1,0,1.5c-.81,4.7-2,5.93-6.83,6.79.72.46,1.4.86,2.06,1.31s1.35,1,2.36,1.73l-6,9.34c.21,1.55,1.45,3.94-.82,6-.12.11-.33.28-.3.38.65,2.52,1.11,4.48-2.7,5.11-1.9.31-3.45,2.71-5.35,4.33l-5.92-5.32-2.87,3c-.66-.39-2.33-1.24-3.87-2.29s-2.82-2.07-2.85-4.32c0-1.28-1.12-2.59-1.89-3.8-1.16-1.83.58-4.1-1.43-6-1.33-1.28-1.51-3.8-2.06-5.81-.59-2.17-1.07-4.38-1.46-6.59-.1-.55.37-1.21.59-1.85-2.59-1.69-3.08-4.8-4.45-8.26-.59,1.22-1.13,1.83-1.14,2.44-.07,4.5,0,9,0,13.79l-3,.86c4.53,1.74,2.53,5.26,3,8.58h-4.51l-1.35,2.56c.88,2.11,3.87,3.45,2.73,6.52ZM356,703c2.78-2.26,2.78-2.26,3.91-5.09a11.65,11.65,0,0,1-7.09,0l-2.25,3.71Zm-77.37,46.32,3,1.37,1.8-3.57c-3.5,1-6.12-.28-8.93-.11L273.24,751Zm73.44-41.05-.21-1H346l.38,4.1Zm-27.24,55.84v-1.28l-3.66-1v3.35Zm-49.44-10-1.66,3.56,4.26.19Zm-3.91,24.76-1.93,2.74,3.35.28Zm70.72-66.21,3.08-1.36-3.08-1.59Zm-38.37,45.89c-.84-1.55-2-2.12-3.65-1.24C301,758.94,302.18,759.49,303.83,758.63ZM287.91,709.3c1.15,1.8,1.15,1.8,3.18-.25Zm33.54,72.81.36-1.07c-.8-.24-1.6-.49-2.41-.68a4,4,0,0,0-.29.8C319.87,781.51,320.66,781.81,321.45,782.11Zm31.43-30.68,1.06.38c.25-.8.51-1.6.72-2.42a4,4,0,0,0-.8-.29C353.5,749.86,353.2,750.65,352.88,751.43Zm1.23-40.15.38.66a4,4,0,0,0,1.28-.31,6.39,6.39,0,0,0,1.08-1.13l-.52-.61Zm6,35.42c-.49-.25-.89-.63-1.21-.57s-.56.55-.83.85l1.27.93Zm2.44-37.85.2-.53a4.77,4.77,0,0,0-1.27-.3,4.53,4.53,0,0,0-1.22.39l.15.44Zm-70.72,19.75-.69-.68L290,729.46l.47.39Zm-16.47,54.57,0,.86,2.27-.39-.05-.46Zm77.43-.35v-.64c-.5,0-1,.1-1.49.16a.9.9,0,0,0,0,.28C351.81,782.71,352.31,782.77,352.81,782.83Zm-60.46-87.56c0,.09-.17.21-.14.28s.18.22.28.32l.17-.6Zm-15.79-1.47.32-.29-.29-.31-.32.44Z" transform="translate(-114.82 -166.21)" style="fill:#fec30b"/><path d="M607,775,604,772.13l.82-1.76c-3.75-.91-2.68-3.93-2.81-6.71-2.28-2.08-3.81-4.6-3.27-8.18.16-1.05-1.26-2.34-2.49-4.42-.73,4.76-1.31,8.41-1.83,12.07a1.59,1.59,0,0,0,.44,1.17c2.16,2.11,1.45,4.87.88,7a14.78,14.78,0,0,0,0,9.08A4.07,4.07,0,0,1,594,785l-4.78,2.68c-2.25-1-4.28-3.7-7.23-2.66-2.23-.81-1.85-3.9-4.83-4l1.79,3.9-1.26,3.7c-1.42,1.48-6.51,2.07-7.78.69-1.68-1.82-1.12-4.08-.46-6.07.5-1.49,1.65-2.76,2.64-4.33-.77-1.59-3.51-3-1.24-5.35-1.62-2,.7-5-1.82-6.8,0-4.33-.19-8.68.18-13,.11-1.23.8-2.14,0-3.53-.5-.83.2-2.32.15-3.5-.23-5.41-.94-10.8.41-16.21.35-1.41-.66-3.09-.68-4.66-.08-8.66-.12-17.33,0-26,0-2.23.79-4.44,1.33-7.24,1.56-.51,3.35-1.55,5.16-1.59,8.31-.18,16.63-.08,25.37-.08,2.58,5.72,5.17,11.38,5.58,18.57,3.13,1.76,2.52,6.25,4.43,9.58s3,7,4.92,11.7V691.25c1.73-.09,3.17-.09,4.58-.27,1.76-.22,3.49-.62,5.25-.89A6.86,6.86,0,0,1,632.1,692l-1.89,2.64c.88,1.23,2.31,2.19,3.34,1.07,2.09-2.25,4.49-1.52,7.13-1.69,1.39,5.54,2.83,10.84-.7,16.16l2,2.59v12.78l-2.82,2.19-1.37,7.68c4.16,3.16,4.78,7,3.89,11.63-.55,2.9.09,6.06.37,9.09.46,5.14-.52,10.17-1.23,15.19a34.54,34.54,0,0,0,.21,7.22l-2.71.84c.17.22.32.6.47.6,2.32-.06,3.36,1.06,3.23,3.35,0,.66,0,1.33,0,2,0,4.5-.2,4.69-4.82,4.7-8.49,0-17,0-25.49,0l-2.89-2.39c.39-.81.45-1.19.67-1.35.9-.68,1.85-1.3,2.79-1.94,3.71-2.54,3.71-2.54.23-6.24l-3.94,4.75L607,775l.8-.32-.41-.41Zm-23-78a27,27,0,0,0-3.64-1c-1.79-.25-3.17.31-3.3,2.81,2.51-.17,4.85-.31,6.87-1.89a7.3,7.3,0,0,0,2.34-.11c.3-.11.27-1.09.39-1.68l-.72-.37ZM624,712c2.06.35,3.61-.57,5.15-1.73-1.45-3.24-3.79-2.09-6.32-2,.39.91.66,1.44.83,2s.28,1.24.41,1.85c-1.68.16-3.51-.57-5.22.75C621.09,714,621.09,714,624,712Zm10.56-7.81,4.22-4.86H629.3l-.57,2.35-3,.91Zm-36.37,28.44c3.56,2.29,5.13,2,6.83-1.6-1.48.39-2.67,1.05-3.75.91S598.86,730.75,598.16,732.59Zm18.74,49.07,5.69,1.46.5-.8-2.68-2.55Zm-42.55-20.53c2.16-2,2.16-2,0-4.42Zm23.46-50.76c-2-.22-2-.22-4.27,1C595.6,712.28,596.87,712.23,597.8,710.37Zm37.11.64c-3.16,1.5-3.16,1.5-1.49,3Zm-58,6.49c2.06.94,3.09.34,4-1.47a7.68,7.68,0,0,0-2.23,0A8.42,8.42,0,0,0,576.92,717.5ZM608.85,762c.42.37.91.91,1,.85a6.69,6.69,0,0,0,1.07-1.1c-.35-.23-.7-.65-1-.64S609.27,761.64,608.85,762Zm-16.74-23.65c-.32-1.75,0-3-2-1.8ZM580.2,759.05l.62-.7-1.33-1.18-.48.43Zm49.61,23.78v-.64c-.5,0-1,.1-1.49.16a.9.9,0,0,0,0,.28C628.81,782.71,629.31,782.77,629.81,782.83Zm5.39-35.67v.64c.5,0,1-.1,1.49-.16a.9.9,0,0,0,0-.28C636.19,747.29,635.69,747.23,635.19,747.17Zm-4,4.64h.65c0-.5-.1-1-.16-1.49a.89.89,0,0,0-.28,0C631.3,750.82,631.24,751.31,631.17,751.8Zm-54.45,27.55c-.09,0-.21-.17-.28-.14s-.22.18-.32.28l.6.17Zm3.63-.07c0,.09-.17.21-.14.28s.18.22.28.32l.17-.6Zm38.45-4.84-.29-.32-.31.29.44.32ZM603.56,725.8l.32-.29-.29-.31-.32.44Z" transform="translate(-114.82 -166.21)" style="fill:#fec30b"/><path d="M1102,775l-3.05-2.91.82-1.76c-3.75-.91-2.68-3.93-2.81-6.71-2.28-2.08-3.81-4.6-3.27-8.18.16-1.05-1.26-2.34-2.49-4.42-.73,4.76-1.31,8.41-1.83,12.07a1.59,1.59,0,0,0,.44,1.17c2.16,2.11,1.45,4.87.88,7a14.78,14.78,0,0,0,0,9.08A4,4,0,0,1,1089,785a18.16,18.16,0,0,0-2.56,1.21A7.91,7.91,0,0,0,1085,788c-3.06-1.39-5.08-4.06-7.92-3.07-2.48-.63-1.79-4.06-4.87-3.78l1.72,3.76-1.26,3.7c-1.43,1.48-6.52,2.07-7.78.69-1.67-1.82-1.12-4.08-.46-6.07.5-1.49,1.65-2.76,2.64-4.33-.77-1.59-3.51-3-1.24-5.35-1.61-2,.7-5-1.82-6.8,0-4.33-.19-8.68.18-13,.11-1.23.8-2.14,0-3.53-.5-.83.2-2.32.15-3.5-.23-5.41-.94-10.8.41-16.2.35-1.41-.66-3.09-.68-4.66-.08-8.66-.12-17.33,0-26,0-2.22.79-4.44,1.33-7.24,1.56-.51,3.35-1.55,5.16-1.59,8.31-.18,16.63-.08,25.37-.08,2.58,5.72,5.17,11.38,5.58,18.57,3.13,1.76,2.52,6.25,4.43,9.58s3,7,4.92,11.7V691.25c1.73-.09,3.17-.09,4.58-.27,1.76-.22,3.49-.62,5.25-.89a6.86,6.86,0,0,1,6.44,1.88l-1.89,2.64c.88,1.23,2.29,2.18,3.34,1.08,2.09-2.21,4.46-1.65,7.16-1.58,1.36,5.43,2.8,10.73-.73,16l2,2.59v12.79l-2.82,2.19-1.37,7.68c4.16,3.16,4.78,7,3.89,11.63-.55,2.9.09,6.06.37,9.09.46,5.14-.53,10.17-1.22,15.19a29.11,29.11,0,0,0,.26,7.2l-2.76.86c.17.22.32.6.47.6,2.32-.06,3.36,1.06,3.23,3.35,0,.66,0,1.33,0,2,0,4.5-.2,4.69-4.82,4.7-8.49,0-17,0-25.49,0l-2.89-2.39c.39-.81.45-1.19.67-1.35.9-.68,1.85-1.3,2.79-1.94,3.71-2.54,3.71-2.54.23-6.24l-3.94,4.75L1102,775l.8-.32-.41-.41Zm-23-78a27,27,0,0,0-3.64-1c-1.79-.25-3.17.31-3.3,2.81,2.51-.16,4.85-.31,6.87-1.89a7.31,7.31,0,0,0,2.34-.11c.3-.11.27-1.09.39-1.68l-.72-.37ZM1119,712c2.06.35,3.61-.57,5.15-1.73-1.45-3.24-3.79-2.09-6.11-2l1,3.85c-1.68.16-3.51-.57-5.22.75C1116.09,714,1116.09,714,1119,712Zm1.37-9.42,9.15,1.57c1.16-1.69,3.23-2.42,3.5-4.9h-8.61l-.76,2.53Zm-27.14,30.1c1.67,2,3.65,1.63,5.51.94.6-.22.86-1.34,1.72-2.8-1.94.59-3,.93-4,1.21S1094.07,730.09,1093.21,732.64Zm24.44,50.46.36-.69-2.51-2.74-3.57,2Zm-47.4-21.56c1-2.06,1.13-3.37-.55-5.1C1069,758.38,1068.42,759.66,1070.24,761.54Zm22.56-51.17c-2-.22-2-.22-4.27,1C1090.6,712.29,1091.87,712.23,1092.8,710.37Zm-17,6.71-.32-1c-1.35-.15-2.62-.1-3.52,2.27Zm54-5.67c-2.62,1.08-2.62,1.08-1.53,2.72Zm-23.66,50.7c-.37-.43-.6-.94-.91-1s-.76.32-1.14.5a6.75,6.75,0,0,0,.94,1.24C1105.1,762.93,1105.65,762.45,1106.13,762.12ZM1085.59,736l-.48.46,1.34,1.4.5-.48Zm-10.18,23,.48-.46-1.34-1.4-.5.48Zm47.79,23.18v.65c.5,0,1-.1,1.49-.16a.89.89,0,0,0,0-.28C1124.18,782.3,1123.69,782.24,1123.2,782.17Zm7-35v.65c.5,0,1-.1,1.49-.16a.89.89,0,0,0,0-.28C1131.18,747.3,1130.69,747.24,1130.2,747.17Zm-3.37,3h-.65c.05.5.1,1,.16,1.49a.89.89,0,0,0,.28,0C1126.7,751.18,1126.76,750.69,1126.83,750.2Zm-28.27-24.4.32-.29-.29-.31-.32.44Zm-27,54,.32-.29-.29-.31-.32.44Zm4.16-.45c-.09,0-.21-.17-.28-.14s-.22.18-.32.28l.6.17Zm38-5c-.09,0-.21-.17-.28-.14s-.22.18-.32.28l.6.17Z" transform="translate(-114.82 -166.21)" style="fill:#fec30b"/><path d="M944,702c2.23.35,4.46.79,6.7,1,2.74.27,4.1,1.18,3.18,3.65-1.62,4.35.56,8.32.23,12.5s-.08,8.65-.08,13.7l-10.6,7.63c2.61,2.1,5.38,4.24,8,6.51,1.82,1.56,2.35,3.69,2.68,6.08s-1.66,4.37-.3,7c.94,1.85.19,4.57.19,6.9q0,3.74,0,7.49a54.41,54.41,0,0,1-2.29,8.22,24,24,0,0,1-7.35,5.5c-3.83,1.77-7.58,1.77-11.49,1.8-3,0-6,0-8.89,0-2.6-1.06-.07-4.57-2.71-5.5l2.85-5.89-5,1.67.93,1.86-5,5.79c-2.85,1.3-4-1.94-6-3.11L907.45,786l.39,3.87-.88.55c-2.16-3.85-5.87-5.1-9.48-6.76-3.31-1.52-4.46-5-4.47-8.67,0-5.23-.5-10.51,1.41-15.65l2.52-.79c-.12-.51-.11-1-.28-1.09-3.13-1.44-4.19-3.7-2.86-7-1.39-2.47-.66-5-.36-7.57s-.37-5.07-.42-7.61a30.9,30.9,0,0,1,.84-9.25c.46-1.61,2.44-3.53.34-5.43l2.56-4.33-3.66-2.62v-12c1.56-2.37,3.5-4,6.45-3.92.13,0,.27-.52.4-.79,1.49,0,3.15.42,3.77-1.71-1.92-.67-3.06,0-3.7,1.79-1.56-.35-3.12-.73-4.7-1-1.77-.35-2.51-1.4-2.25-3.42a16.14,16.14,0,0,1,7.76-1.61c7.48.11,15,0,22.44,0,3,0,6,.36,9,.06,6.84-.68,12.81,1.36,17.25,6.17L944,702l-.8.32.41.41ZM908,737l.32.8.41-.41L908,737l-.31-.8-.41.41ZM940,711c2.87.42,5.08-.3,6.18-3.68-2.57-.09-5-1.32-6.81.92L940,711h-5C937.61,713.59,937.61,713.59,940,711Zm-12,14.73c0-4.7.11-9-.07-13.34-.06-1.37-.89-2.7-1.41-4.18h-5.21a7.56,7.56,0,0,0-2.3,6.4c.62,4.65-1,9.25-.09,14,.49,2.62-.11,2.81-3.2,2.78-.54,0-1.08.75-2.45,1.77l7.93,1.07c-.89-3.38.54-4.81,3-5.83A21.93,21.93,0,0,0,928,725.69Zm0,43.85c0-3.55-.22-6.89.05-10.18.39-4.73-3.14-7.74-9.05-8,0,2.46-.05,4.92,0,7.37.06,2.27-.9,3.42-3.23,3.35-.15,0-.31.35-.47.55l3.84,2.12v6.22l3.68,1.74-3.45.73.08.42h4.17Zm4.3,11.51c-1.29-1.4-1.92-3-3.75-3l-3.68,6C928.57,785.45,930.24,783.33,932.3,781.05Zm1.21.53,6.67,1.62-3.34-3.77Zm-24.34-71.25c2.28.64,3.61,1.14,5.24-.45C912.65,708.86,911.39,708.55,909.17,710.33ZM915.77,781l-.31-1.09c-.79.31-1.58.6-2.36,1a3.85,3.85,0,0,0,.29.79C914.19,781.45,915,781.2,915.77,781Zm34.37-69c-.42-.37-.91-.91-1-.85a6.69,6.69,0,0,0-1.07,1.1c.35.23.7.65,1,.64S949.73,712.36,950.15,712Zm-2.38,37.18-.45,0v2.51l.64,0Zm-51.58,30v.64c.5,0,1-.1,1.49-.16a.9.9,0,0,0,0-.28C897.19,779.29,896.69,779.23,896.19,779.17Zm39.61-5.33v-.64c-.5,0-1,.1-1.49.16a.9.9,0,0,0,0,.28C934.81,773.71,935.31,773.77,935.81,773.83Zm11,8v-.64c-.5,0-1,.1-1.49.16a.9.9,0,0,0,0,.28C945.81,781.71,946.31,781.77,946.81,781.83Zm-15.08-71.48c-.09,0-.21-.17-.28-.14s-.22.18-.32.28l.6.17Z" transform="translate(-114.82 -166.21)" style="fill:#fec30b"/><path d="M250,715a6.51,6.51,0,0,1,1.95,5.13,86.52,86.52,0,0,0,0,10,59,59,0,0,1-.05,10.48c-.6,4.57,1.27,9.28-.85,13.73,2.53,2.47-.46,5.37.73,8.25,1,2.42.37,5.59.16,8.41a40.35,40.35,0,0,1-1.27,7.65,5.08,5.08,0,0,1-3.45,3.81,30.46,30.46,0,0,0-4.66,2.32L240,781.3c-4.71,1.17-2.55,6.77-6.12,9l-2.06-3.45,2.1-4.89-3.55,1.32c-.56,3.51-.56,3.51-4.08,6.77-3.45,0-7.1,0-10.75,0-4.4-.06-7.92-1.69-10.08-6l-2,2.76c-3.87,0-6.6-1.21-6-3.07.8-2.52-1.27-4.18-.29-6.56h-4.85c-.44-1.76-1.51-3.61-1.11-5.05.59-2.15,1.27-4-.11-6-.31-.46-.08-1.3-.06-2,.09-3.9-.43-7.85.8-11.68-1.78-3.82-.52-7.85-.75-11.77s-.05-8-.05-12V716.49l3.94-2.87c-3.89-1.42-4.06-1.43-3.89-5,.14-3.07.72-6.12,1.12-9.28l11-8.23c2.73,1.26,6,.29,9.32.09,8.14-.49,16.33-.32,24.48-.06a15.81,15.81,0,0,1,7.5,1.75c5.9,3.34,7,8.95,7.53,14.88a3,3,0,0,1-.58,2.27c-1.75,1.42-1.37,3.24-1.34,5l-4.12-.56.45,3.11ZM234,776l-4.7,0c1.59.4,3.38,1.92,4.63-.12l.8-.32-.41-.41Zm3-65h-5c1.35,2.54,3.05,2.16,4.93,1.55V711l.8-.32-.41-.41Zm-26-11a9,9,0,0,1-2.86-.48c-2.48-1.36-3.74.21-5.67,1.81,3.54,1.27,6,.08,8.45-1.41l1.77-.33-.35-.67Zm16.3,66c-.56-2.17-1.26-3.66-1.28-5.17-.11-7.48-.05-15,0-22.46a4.16,4.16,0,0,1,.43-1.27l4.33-.44.89-2.86c-2.08.7-3.66,1.85-5.71.5,0-3.71.29-7.51.08-11.31-.23-4.13-.05-8.29-.05-12.3-3.63-3.8-4.67-3.78-9,0,0,7.41,0,14.89,0,22.37,0,2.22-.58,4.44-.55,6.65.1,6.76.67,13.54.44,20.29-.1,3,.35,5.84.42,8.79h6.91Zm-1.46,16c-2.4.3-2.43.3-2.81,1.77-.06.23.22.54.48,1.12l2.47-.36ZM201.51,764l1.19,0,.21-4-2.68.26Zm1.77-44.69c2.18,2.61,2.75,1.1,3.76-.25Zm3.84,41.42c-.49-.25-.89-.63-1.21-.57s-.56.55-.83.85l1.27.93Zm21-32.47,0,.45h2.51l0-.64Zm9.7,36.54,0-.45h-2.51l0,.64Zm-3.66-71.59v.64c.49-.06,1-.12,1.47-.19a.88.88,0,0,0,0-.28C235.17,693.28,234.68,693.23,234.19,693.18Zm-41,75,0,.64c.5,0,1-.1,1.5-.16a.9.9,0,0,0,0-.28C194.19,768.29,193.69,768.23,193.19,768.17Zm14.61,14.67,0-.64c-.5,0-1,.1-1.5.16a.9.9,0,0,0,0,.28C206.81,782.71,207.31,782.77,207.81,782.83Zm-13.08-50.48c-.09,0-.21-.17-.28-.14s-.22.18-.32.28l.6.17Zm8,50c-.09,0-.21-.17-.28-.14s-.22.18-.32.28l.6.17Zm43.08-5.91-.29-.32-.31.29.44.32Z" transform="translate(-114.82 -166.21)" style="fill:#fec30b"/><path d="M512,731.84c3,1.67,6.75.52,9,3.87-.25,1.47-2,3.11-.17,4.77-1.24,2.85.52,6.23-1.57,9,.93,2.06,2.49,3.82.93,6.65-.92,1.66-.59,4.35-.08,6.38.67,2.62-.37,4.82-.68,7.46,2.28,2,5.18.92,7.86.85.59,0,1.42-1.32,1.64-2.17a14.12,14.12,0,0,0,.07-3.48q0-34,0-68c0-1.17,0-2.34,0-3.5a2.5,2.5,0,0,1,2.85-2.67,6.27,6.27,0,0,1,1.49,0c3.49,1,7,1.3,10.47,0,.21-.08.57.23,1.15.49l-.55,3.18c3.21,1.85,5.65-3,9.41-1.33A23.36,23.36,0,0,1,553.5,710c.75.9,2.47,2,1,4.23-.31.44.23,1.41.25,2.14.07,3.35,1.42,6.74-1.23,9.92-1.1,1.32-1.16,3.49-1.85,5.83.89,2.64,2,6,3.1,9.3a5.06,5.06,0,0,1,.25,2.42c-.61,3,.08,6,0,9a81.82,81.82,0,0,0,.07,9.49c.25,2.36-1.75,4.52-.21,7,.52.83-2.27,1.21-1.21,3.14.56,1,.19,2.61.06,3.93s-.51,2.43-.71,3.66c-.45,2.73-1.9,4.46-4.24,6.13A19.76,19.76,0,0,1,536,790c-4.16-.17-8.33,0-12.5-.06-2.07,0-4.18.07-2.88-3.37.49-1.3-1.25-3-2.86-3.18a2.53,2.53,0,0,0-2.85,1.91c-.39,1.34-1.49,2.46-2.57,4.14l-5.86-4.42-2.75,2c-3.15-1.08-6.36-2.22-7.81-5.75-.54-1.32-.6-2.86-1.26-4.1a4.93,4.93,0,0,1,0-4.66c.39-1-.69-2.42-.58-3.61.31-3.58-1-7.28.85-10.76.25-.46-.09-1.26-.19-1.9A29.82,29.82,0,0,1,494,752c-.07-7.67-.08-15.33,0-23,0-1.58.92-3.18.79-4.71s-.79-2.87.07-4.49a4.61,4.61,0,0,0,0-3.43c-2.12-5.34-.3-10.85-.79-16.26-.08-.88,1.13-1.89,1.88-3L494,693a2.85,2.85,0,0,1,3.08-2c6.5,0,13,0,19.5,0,2.83,0,3.28.61,3.41,3.6,0,.33,0,.67,0,1,0,7.09-.28,14.18,1,21.22a31.21,31.21,0,0,1,0,4.95l-4.49,2.88,3.41,1.91v2.58C518,731.84,514.63,730.61,512,731.84ZM536,782l.32.8.41-.41L536,782l-2.06-2.41L531.79,782Zm16-81.68c-3-2.11-5.92-1-8.89-1.18,1.74,2.73-1.54,2.28-1.86,3.77h7Zm-29,84.53c3.94.71,4.4-2.45,5.83-4.33L527,777.77C524.6,779.57,523,781.46,523,784.81Zm14.62-78.06-.75.87,1.6,3.29c2.19.36,3.35-.85,5.19-2.46ZM522,779.24c-2.52-.63-3.78.61-5.45,2C519.64,782.95,520.53,780.84,522,779.24Zm-9.34-70c-3.37-.07-3.37-.07-4.82,1.35.77.16,1.42.5,2,.35A15.5,15.5,0,0,0,512.7,709.23Zm-1.4,72.85c1.8-1.15,1.8-1.15-.25-3.18Zm24.31-69,.35-1c-.87-.27-1.73-.55-2.61-.79a4.62,4.62,0,0,0-.26.76C533.92,712.47,534.77,712.79,535.61,713.12ZM517.46,773.2l-.15.5h4.4v-.5ZM497.32,696.3l.29,1,3.28-1.38-.37-.92ZM516,762.58,512.77,761C513.46,763.45,514.6,763.14,516,762.58Zm31.15-13.41c-1.67-.1-2.66-.15-1.55,1.7Zm1.07-38.21c-1.77.18-2.68.24-1.54,1.91Zm2.6,35.88v-.64c-.5,0-1,.1-1.49.16a.9.9,0,0,0,0,.28C549.81,746.71,550.31,746.77,550.81,746.83Zm-45.46-10.56c0,.09-.17.21-.14.28s.18.22.28.32l.17-.6Zm27,37c0,.09-.17.21-.14.28s.18.22.28.32l.17-.6Zm11.37,8.07c-.09,0-.21-.17-.28-.14s-.22.18-.32.28l.6.17Z" transform="translate(-114.82 -166.21)" style="fill:#fec30b"/><path d="M986,788a8.83,8.83,0,0,1-6.3,2,82.92,82.92,0,0,0-8.37-.06c-.16-3.41-.32-6.43.59-9.46s1.35-6,2.05-8.93c.74-3.13,1.43-6.27,2.36-9.35s2.78-6.29,3.16-9.55a71.33,71.33,0,0,1,1.46-8.61c.61-2.5,1.24-5,1.77-7.5.79-3.79,1.43-7.61,2.26-11.38.65-3,1.88-5.88,2.18-8.88.59-5.83,3.6-11,3.93-16.94.12-2.09,1.76-4.1,2.72-6.17,3.65-.29,7.21.15,10.14-2.17.31-.24,1,0,1.47,0,6.5,0,13,0,19.49,0,1,0,2,.68,3.26,1.12l-1.28,3.21,2.63,2.12c.78,3.4,1.77,7,2.39,10.61.67,3.94.82,8,3,11.53a5.69,5.69,0,0,1,1,3.19c-.3,3.4,1.32,6.31,2,9.46,1.6,7.72,4.47,15.16,5.12,23.1a12.89,12.89,0,0,0,1,4.21c2.13,4.68,1.85,9.82,3,14.68.73,3.09,1.85,6.09,2.84,9.26l-4,4.2,5.21.55c-2.16,2.48-4.5,2.31-7.2-.38-3.15,2.7-6.87,2.2-10.66,1.92a35.85,35.85,0,0,0,.2-5.77c-.06-.51-1.55-.86-2.17-1.18L1028,786l.08.08-2.38-4.08c.8-.92,2.36-2.55.74-4.94l-3.24,1.1-.14-2.57,3.06-1.16-.24-.86-2.46.46-2.45-3.82,1.16-2.6-2.84-1.92c-1.88,2.4-4.26,4.38-6.8,4.14s-5,.72-7.5.25a20.76,20.76,0,0,0-3.64,0l-4.26,13.65-2.54.55,1.9,5.55H986.16L986,788l1-1,3.79-3.12-2.39-4.62-4.24-.76v3.22L987,787Zm24.1-56.75c-.72,3.28-1.28,6.6-2.2,9.82s-1.85,6.32-1.75,9.66H1016C1014.08,744.14,1013.68,737.4,1010.13,731.29Zm-9.22-29.49c-2.92-1.07-4.58-1.25-5.86,1,.87.41,1.76,1.22,2.53,1.11C998.5,703.76,999.32,702.85,1000.91,701.79Zm22,35.14c-2-1.11-4-1.32-6.68.13C1019,738.28,1021,738.25,1022.89,736.93Zm-30.81,24.18,1.7,4,.82-.17v-3.8Zm33-47.89.13,1.49c1.65.27,3.39,1,4.81-1.77Zm-10.69,3.93,2.92-3.16-4.74.32Zm12.75,48.1,0,1.53,2.84-.24,0-1.13Zm-29.42-42.1,1.52-3.24-3.3,1.68Zm25.44,7c-.37-.43-.6-.94-.91-1s-.76.32-1.14.5a6.75,6.75,0,0,0,.94,1.24C1022.1,730.93,1022.65,730.45,1023.13,730.12Zm-20.24-28.33h3.22L1004.5,700Zm31.59,76.85c2.07.33,3.54,1.11,3.21-1.41-.43.22-.78.42-1.14.59S1035.7,778.16,1034.48,778.64ZM986.2,734.17v.65c.5,0,1-.1,1.49-.16a.88.88,0,0,0,0-.28C987.18,734.3,986.69,734.24,986.2,734.17Zm30.63,25h-.65c0,.5.1,1,.16,1.49a.89.89,0,0,0,.28,0C1016.7,760.18,1016.76,759.69,1016.83,759.2Zm-17,3.63v-.65c-.5,0-1,.1-1.49.16a.89.89,0,0,0,0,.28C998.82,762.7,999.31,762.76,999.8,762.83Zm-13.08,6.52c-.09,0-.21-.17-.28-.14s-.22.18-.32.28l.6.17Zm29-7c-.09,0-.21-.17-.28-.14s-.22.18-.32.28l.6.17Z" transform="translate(-114.82 -166.21)" style="fill:#fec30b"/><path d="M1322,758l2.66.12c1.26,3.59-1.06,6.12-2.65,9a42.83,42.83,0,0,0,3.75,2.82c3.35,2,5.1,1.5,7.28-2,.35-.55.63-1.14,1-1.9l-2-3.89a14.3,14.3,0,0,0,.91-2.54,17.71,17.71,0,0,0,0-3c-2.65-3.63-6.95-4.65-10.5-6.77-6.23-3.73-12.56-7.31-18.85-10.95-2.47-1.43-3.38-4-4.31-6.4a27.71,27.71,0,0,1-1.31-7.13c-.25-2.35-.12-2.39,2.17-4.7-3-1.18-1.77-3.94-2.08-6-.46-3.07-.12-6.26-.12-9.5l7-3.21-3.89-1.52c-.27-3,2-4.23,4.06-5.46,4.56-2.69,9.31-4.35,14.81-4.08,7,.35,14,.08,21,.08,1,0,2.16-.33,3,.06,3.74,1.82,7.38,3.84,11.25,5.89l-1.9,2.61L1358,701c-.19,4.56-5.22,1.44-5.88,5.09.25,1.35,1.39,2,3.1,1.86s3.16,0,3.71,1.74a3.74,3.74,0,0,1-1.51,4.38c-.8.59-1.57,1.24-2.42,1.92,1.59,1.08,3.35,1.64,3.87,2.77,1.38,3-.27,5.3-3.61,5.14-3.91-.19-7.94,1-11.74-.8-3.12,1.76-6.5.43-9.86.92-1.73-3.9-1.26-7.67.49-11.58l-2.42-2.39h-5.4l-3.05,3.28c2.09,4.25-.05,9.69,3.89,13.62l-2,2.59.41.5,3.46-2.08c8.06,3.94,26,12.88,28.88,18.77.27,3.24-.17,6.48.91,9.76.63,1.93-.28,4.33-.28,6.51s.65,4.31.31,6.35a15,15,0,0,0,0,5c.58,3.82-1.38,6.95-4.27,9.38-1.23,1-2.66,1.85-4.47,3.09h-3.63l-3.28-3-2.25,1.46,4.25,2.47c-1.83,3.65-5,1.64-7.36,2.26-2.61-2.3,1-4.37-.19-6.84l-2.92-.2c-2,2.22-1.36,5.8-4.94,7l-1.6-2.4,2-4.05c-1.95.66-1.89.69-3.62,3.31a37.14,37.14,0,0,1-2.68,3.28c-4.8-.52-9.13.78-13.26-1.1a27.37,27.37,0,0,0-4-1.71c-2.1-.57-2.77-2-2.85-3.88-2.24-1-4.36-1.94-4.76-4.49-.34-2.13-2-4.09-.33-6.55.56-.82-.43-2.7-.75-4.3l2.14-4.35L1298,757.9a2.74,2.74,0,0,1,3-1.91c2.48.12,5,.21,7.44.21s4.7-.26,7-.15c2.09.09,4.17.53,6.37.83L1322,758l-.8.32.41.41Zm6.75-23c-2.94.39-5,.61-7.08,1-.3.06-.44,1-.83,2C1323.62,737.65,1326.32,739.22,1328.71,735Zm18.39-20.1c2.43.16,4.58.64,4.7-2.56h-4.7Zm-37.22-14-.39-.93-3.24,1.47.35.83Zm10,84.16c.42.37.91.91,1,.85a6.61,6.61,0,0,0,1.07-1.1c-.35-.23-.7-.65-1-.64S1320.27,784.64,1319.85,785Zm22-68.24h3.22L1343.5,715ZM1302,762.42l.53.45,1.29-1.37-.64-.54Zm16-47,.46.48,1.4-1.34-.48-.5Zm-16.82,4.76v.64c.5,0,1-.1,1.49-.16a.9.9,0,0,0,0-.28C1302.19,720.29,1301.69,720.23,1301.19,720.17Zm12,20v.64c.49-.06,1-.12,1.47-.19a.89.89,0,0,0,0-.28C1314.17,740.28,1313.68,740.23,1313.19,740.18Zm41,14.63h.64c-.06-.49-.12-1-.19-1.47a.88.88,0,0,0-.28,0C1354.28,753.83,1354.23,754.32,1354.18,754.81Zm-22.62-60,.32-.29-.29-.31-.32.44Z" transform="translate(-114.82 -166.21)" style="fill:#fec30b"/><path d="M127,784l.95,3.47c-.61.45-1.36,1.49-2.08,1.47-3.22-.1-5.1-2.4-7.14-4.92l2.35-2.81L119,778.12l1-2.16.8-.32-.41-.41-.32.8c-1.72-.22-4,.69-4.8-1.59s-.28-4.55,2.2-6.32A6.45,6.45,0,0,1,115,761.9c.49-4.07-.81-8.26.79-12.27-1.7-4.83-.16-9.82-.94-14.72l3.07-3.49c-2.3-.64-3.2-2.09-2.92-4.43.41-3.41-.63-6.9.67-10.31.26-.67-.5-1.74-.82-2.74l2.16-1.77c-3.8-6.47-1.46-10.56,2.61-15.45,3.15-3.78,7.65-3.9,11.54-5.66.46-.21,1.21.29,1.84.41.95.19,2,.71,2.84.44,5.85-1.94,11.84-.56,17.74-.83,1.66-.08,3.37.92,5.14,1.44,2.85-1.6,5.71,1.67,8.46.41,4.66,3.8,8.5,7.74,8.76,14.42L173,709.82c-.54,2.47,2.11,3.12,2.74,4.58.85,2.61-.38,4.92.07,7.28.12.62-.86,1.7-1.59,2.15s-1.61.16-2.43.16c-6.16,0-12.33,0-18.49,0-2.59,0-3.22-.67-3.31-3.18-.09-2.33,0-4.66,0-7-.07-3.28-.48-3.69-3.71-3.8-1.16,0-2.33,0-3.44,0-1.75,1.66-1.88,3.71-1.86,5.9.07,5.66.41,11.36-.09,17-.47,5.36.36,10.63.16,15.95-.21,5.49-.06,11,0,16.49,0,2.94,0,2.94,2.14,6.28,5.44.68,5.42.68,6.93-4.73.13-.48.93-.77,1.44-1.16a18.79,18.79,0,0,1-1.45-3.68,31.59,31.59,0,0,1-.06-5c4.76,0,9.35.07,13.94,0a39.36,39.36,0,0,1,9.24.94c2,.44,2.84,1.31,2.82,3.28,0,5.16,0,10.33,0,15.49,0,2.39-1.48,5.14-3.72,7.39a14.64,14.64,0,0,1-1.51-.84c-.53-.37-1-.84-1.76-1.51l-2.44,2.64,3.52,1.18c-2.32,3-6.87,4.5-13.29,4.4l-2.69-3.56,2.83-3.56c-2.49-.79-2.39-.72-4.39,2a69.53,69.53,0,0,1-4.74,5.28c-1.81,1-3.17-1.41-5.09-2.43L138.93,790c-3.53-2.23-7.84-3-11-6-.17-.16-.64,0-1,0l-1-1-.34-1.76-.66.35L126,783Zm30.15,3.13c2.27-.24,3.58-.14,4.66-.57a3.9,3.9,0,0,0,1.95-2.1c.68-1.9-.28-3-2.34-3.47Zm-26.13-87.54c-1.7-1.86-3.26-1.95-5.13-1l.41,2.49Zm23.27,9.71c4.32,3.24,4.72,3.19,5.28-.45a7.69,7.69,0,0,1-2.18,1.06A13,13,0,0,1,154.33,709.26Zm-31.07,53.64,1.16.11,1.29-4.09-2.64.25Zm46.16-50.71L168,713.53l2.23,1.7,1.69-1.79ZM124.32,719a19.54,19.54,0,0,0,3.88-.08c.3-.07.37-1.09.77-2.43Zm24.95,64.19-3-1-.42.69,1.78,2.29ZM126.46,759c1.58,1.28,2.32,3.06,3.86.32Zm6.75-61,.32,1.09c.79-.3,1.59-.59,2.37-.93a3.94,3.94,0,0,0-.27-.81C134.81,697.55,134,697.79,133.21,698Zm25.91,64.85c-.43.37-.94.6-1,.91s.32.76.5,1.14a6.75,6.75,0,0,0,1.24-.94C159.93,763.9,159.45,763.35,159.12,762.87Zm-5.48,13.95-.06-.84-2.26.35,0,.49Zm-23.91,4.53c-.09,0-.21-.17-.28-.14s-.22.18-.32.28l.6.17Zm27.08-5.91-.29-.32-.31.29.44.32Zm11,1-.29-.32-.31.29.44.32Z" transform="translate(-114.82 -166.21)" style="fill:#fec30b"/><path d="M814,751c0,2.93,0,5.73,0,8.53,0,3.65,0,3.65-3.79,5,3.75,1.27,3.76,1.27,3.79,5,0,2.5.08,5,0,7.49a9.06,9.06,0,0,1-.76,3.26c-.53,1.17-1.56,2.12-2,3.31a19.8,19.8,0,0,0-.65,3.95l2.27,1.68-.19.72a10.74,10.74,0,0,1-3.31-.49c-.9-.44-1.5-1.5-2.46-2.53l1-4.58-3.51.95c-.63,3.64-1.38,4.71-4.51,6.29-2.49,1.26-4.35-.39-6.33-1.34l-3,1.88c-.67-.27-1.09-.3-1.23-.51a8.56,8.56,0,0,1-1.41-5.07c.08-3.14,1.54-6.12.18-9.5-1.17-2.91.79-6.27-.13-9.43,2.23-3.92-1.6-8.11.64-12.22.72-1.33-2.39-3.74-5.14-4.39A15.92,15.92,0,0,1,772,739.64a10.8,10.8,0,0,1-.93-3.7c-.14-2.82.15-5.68-.09-8.49-.28-3.19-1-6.34-1.58-10.19l1.24-2.46c-1.21-9.11-1.41-17.2,5.82-23.8,5.75,0,11.56,0,17.37,0,2.37,0,3.59,1,3.09,2.75-.6,2.13.44,4,.18,6a45.94,45.94,0,0,0-.05,6.49c0,2.47.28,5-2.4,6.65,2.5,2.64,2.48,5.58,2.41,8.57s0,6,0,8.91c.86.48,1.54,1.14,2.26,1.2,1.57.12,3.65.52,4.64-.28a5.12,5.12,0,0,0,1.52-5.56,8.94,8.94,0,0,1-.28-4.85c.51-1.63,1.21-2.84.06-4.56-.36-.54.65-2,1.14-3.36l4.37.37,2.26-3.32c-.84.13-1.37.05-1.69.28-3.29,2.3-5.8,1.67-6.15-2.17a130.07,130.07,0,0,1,0-15.45c0-.61,1-1.19,1.67-2l3,3.5,5.27-3.27c2.83.34,5.92-.46,9,.86,1.41.6,3.43-.25,5.43-.47,1.67,2,1.67,2,.26,12.24l-2.73.83c1.48.46,2.84.86,4.16,1.33.27.1.43.49.79.93l-1.23,2.79-7,1.8,1.57,3.44a4.64,4.64,0,0,1,1-.46c5-.91,6.29.51,5.4,5.47a18.16,18.16,0,0,0-.23,6.6,30.73,30.73,0,0,1,.06,11.28c-1.33,6.5-5.88,10.12-12.38,11.44A35.66,35.66,0,0,0,814,751Zm-28-52-5.82-.7-3.26,2.12,2.68,1.34c1.57-1.85,4.51-1,6.33-2.84l2.7-.26c-.47-.57-1-.8-1.34-.66A5.23,5.23,0,0,0,786,699Zm12.91,37,5.5,1.12,1.6-3.61c-1.79.68-2.8,1.38-3.78,1.35C801.1,734.82,799.89,733.68,798.94,736Zm23-18.64,2.55-2.41c-1.93.47-3.25-1.93-4.34.74Zm-41.52,4.7,1.42-3-3.34.24Zm18,59.72-1.69,1.89,2.79,1.27.5-.63Zm2.15-18c-.32,2.16-.32,2.16,2.37,1.74Zm-9-25.79-.61.61L792.4,740l.64-.64Zm8.2,19.65-.69-.68L798,758.46l.47.39Zm4.35,18.56v.64c.5,0,1-.1,1.49-.16a.9.9,0,0,0,0-.28C805.19,776.29,804.69,776.23,804.19,776.17Zm-6.63-15.36.32-.29-.29-.31-.32.44Zm10.79,15.47c0,.09-.17.21-.14.28s.18.22.28.32l.17-.6Z" transform="translate(-114.82 -166.21)" style="fill:#fec30b"/><path d="M1423.32,710.2l-.55-4h-4.5l-.5,3.45-4.1.71,2.12,3.22c-.28,1.65-1.15,3.38-.63,4.42,1.31,2.59.79,5.2.81,7.79.08,13.16,0,26.32.05,39.48,0,2.52-.16,4.88-2.76,6.15l3.06,2.39-4,5.78c3.6,1.15,3.6,1.15,3.64,4.93,0,1,.05,2,0,3a2.37,2.37,0,0,1-2.56,2.43c-5.1,0-10.21,0-16.18,0l3.83-4.95-2.51-3.66c-3.59.1-3.57,4.71-7,5.75l-2.49-3.79c.29-2.47,2-3.45,4.66-4l-3.53-3.13c-1-3.47-.59-7.46-.87-11.31-.27-3.64,1.64-7.43,2.62-11.27-3.45-1.09-1-4.54-2.5-6.47,1.7-2.32-.36-4.82.42-7.38s.33-5.29.12-7.94c-.28-3.57,1.53-7.31-.88-10.74-.26-.37.18-1.23.27-1.87.22-1.44.86-3,.55-4.3-.6-2.6-.38-4.71,2.66-6.54-1.36-.19-2.2-.55-2.46-.31-2.57,2.51-5.78,1.89-8.85,1.93-2.16,0-4.33,0-6.5,0a2.48,2.48,0,0,1-2.76-2.75c0-2.83,0-5.65,0-8.52l3.43-4-3.38-1.21c.32-2.69,2.23-2.48,4.07-2.53,2.32-.05,4.51.49,7,.24,6.26-.66,12.64-.24,19-.19a18,18,0,0,1,2.3.66c1.13.18,2.48.63,3.39.21,2.87-1.33,5.84-.67,8.76-.92,3.61-.31,6.88.27,9.38,3.26l6.45-2.53c1,5.35.49,5.69-7.66,5.41l-1.9,3.6,4.34,1.14,5.89-2.47c0,2.67.12,4.62,0,6.55a45.05,45.05,0,0,1-1,4.94l-3.65-1.71Zm-14.39,66.9c-4.54-.32-4.69,3-5.58,5.58C1407.64,782.9,1408,782.52,1408.93,777.1Zm-17.08-45.86c2.45.41,4.53,1.55,6.7-.65-1.32-.28-2-.41-2.76-.59s-1.72-.45-2.72-.72Zm13.66-25.61-5.58,1.91,4,1.21Zm-8.41,73.57c3.19,1.19,3.6-.8,4.92-1.83-.71-.17-1.08-.38-1.29-.28C1399.79,777.57,1398.9,778.14,1397.1,779.2Zm-1.24-18.58-.41-.68-2.3,1.43.41.69Zm-16.67-66.44v.64c.49-.06,1-.12,1.47-.19a.88.88,0,0,0,0-.28C1380.17,694.28,1379.68,694.23,1379.19,694.18Zm24,65v.64c.5,0,1-.1,1.49-.16a.91.91,0,0,0,0-.28C1404.19,759.29,1403.69,759.23,1403.19,759.17Zm-5.39-35.34v-.65c-.5,0-1,.1-1.49.16a.89.89,0,0,0,0,.28C1396.82,723.7,1397.31,723.76,1397.8,723.83Z" transform="translate(-114.82 -166.21)" style="fill:#fec30b"/><path d="M719.08,778.61l-3-2.38c.32-2-.22-4.45-.33-6.92-.12-2.69-.44-5.3.21-8,.61-2.49,1.19-5,1.82-7.68-3.14-1-1-4.44-2.51-6.4,1-5.73.67-11.52.67-17.28,0-2.92,1.15-6-.87-8.75-.31-.43.3-1.51.42-2.3.19-1.29.68-2.67.4-3.86a6.25,6.25,0,0,1,2.2-6.83c-.91-.13-1.59-.43-1.84-.22-3.42,2.86-7.48,1.86-11.34,1.94-7.37.15-7,.43-7-7.05,0-1.33,0-2.67,0-4.21l3.47-4-3.39-1.27c.17-2.11,1.52-2.62,3.35-2.48,2.81.21,5.56.62,8.46.1,2.74-.49,5.64-.11,8.48-.11,3,0,6-.12,9,0,2.25.12,4.74,1.37,6.67.74,2.49-.82,4.86-.59,7.29-.78,4-.31,7.87,0,10.78,3.26l6-2.56c1.49,5.15.34,5.92-7.35,5.34l-2.32,3.63,4.76,1.11,5.12-2.15c1.67,3.93-.34,7.33.19,11.38l-4.25-1.83-4.9,1.05-.7-4.12h-4.37l-.5,3.55-4.06.7,1.62,2.53c.12,2.67.18,4.5.29,6.33.07,1.14.33,2.27.33,3.41,0,14.33,0,28.65,0,43,0,2.37-.17,4.56-2.69,5.72l3,2.47-4.06,6c2.61,0,4.17,1.2,3.77,4.12-.16,1.14,0,2.33,0,3.49-.06,1.53-.83,2.57-2.4,2.59-5.12.06-10.25,0-16.38,0l3.87-4.94-2.86-4.16-6.32,6.59L715,783.42c.45-2.21,1.5-3.81,4.27-3.79Zm10,4.22c4.69-.08,5.42-.85,5.6-5.72C730.43,776.55,730.53,780.3,729.08,782.83Zm-4.29-52-5.91-1.47-1.08,2.52C720.19,731.87,722.17,732.63,724.79,730.79Zm1-23.24,4.38,1.18.79-2.9Zm1.78,69.67c-1.51.27-3,.48-3.74,2.48C726.2,780.16,726.82,778.48,727.58,777.21Zm-8.38-15.81.44.67,2.17-1.48-.45-.67ZM706.8,694.83l0-.65c-.5.05-1,.1-1.49.16a.89.89,0,0,0,0,.28C705.82,694.7,706.31,694.76,706.8,694.83Zm24,65v-.64c-.5,0-1,.1-1.49.16a.9.9,0,0,0,0,.28C729.81,759.71,730.31,759.77,730.81,759.83Zm-8.61-36.67v.64c.5,0,1-.1,1.49-.16a.9.9,0,0,0,0-.28C723.19,723.29,722.69,723.23,722.19,723.17Z" transform="translate(-114.82 -166.21)" style="fill:#fec30b"/><path d="M1222.57,763c2.78,1.7.76,5,1.78,7.86,1,.05,2.1.16,3.2.17,2.5,0,5.42-.8,7.38.23,2.25,1.18,4.29-1,6.37.63.75.58,2.71-.39,4.58-.73a9.78,9.78,0,0,1,1.07,2.83c.28,4.32-.37,8.65,0,13,.16,1.73-.6,3-2.44,3-8,0-16-.05-23.95-.15-.39,0-.78-.56-1.15-.85,0-1.05.06-2,0-3s-.59-2-.32-2.85,1.26-1.54,2.77-3.24l-6.08,1.58.91,2-5.65,6.91-4.82-4.48-4,2.5-4.22-3.77c.59-2.14,2-4.31,0-6.38l.25-15.91c1.76-1.78-.79-3.2-.36-5,.92-3.94-.21-8,.08-12,.34-4.57-.6-9.17.84-13.77.56-1.8-.73-4.1-.8-6.18-.15-4.33,0-8.66,0-13,0-3,.13-6,0-9a10.18,10.18,0,0,1,1.88-6.91,9.37,9.37,0,0,1-1.59-1.94,2.53,2.53,0,0,1,1.63-3.53,4,4,0,0,1,2,0c5.5,1.72,11-.81,16.45,0,1.87.27,3.71.7,5.67,1.08,0,4.12,0,7.76,0,11.41,0,5,0,5-4.82,6,3.39,1.73,6.4,3.62,4,8.12,1.71,6.36.44,12.84.74,19.26.09,1.89-.68,3.81-.69,5.72,0,1.75.58,3.5.71,5.27.22,3-.84,5.87-.12,9C1224.24,758.5,1223.13,760.51,1222.57,763ZM1205,738l.32.8.41-.41-.8-.32c0-1.08.19-2.28-2.08-1.73Zm17,44.46c1.09,1-.42,3.27,1.95,3.52,2.42-1,5-1.91,3.69-5.51l-2.44-1.28Zm14.33,2.08-3.18-4.6-3.58,1.86Zm-17.89-52.77c-2.82.62-4.95-.53-7,1.7C1214.1,734.12,1216.07,734.71,1218.52,731.73Zm-4.94,49.52H1209C1210.32,782.9,1211.42,784,1213.58,781.25ZM1207,710.41c2.12,1.38,2.12,1.38,3.86-.49Zm7.57,53.72.35-1c-.87-.27-1.73-.55-2.61-.79a4.64,4.64,0,0,0-.26.76C1212.92,763.47,1213.77,763.79,1214.61,764.12Zm27.27,18.62.32.92,2.49-1.11-.24-.64ZM1219,774.6a13.09,13.09,0,0,0,1.31.32,15.24,15.24,0,0,0,.44-1.57Zm-3.8-49.37,0,.45h2.51l0-.64Zm16.2,49c0,.09-.17.21-.14.28s.18.22.28.32l.17-.6Zm-20.79-17.47.32-.29-.29-.31-.32.44Z" transform="translate(-114.82 -166.21)" style="fill:#fec30b"/><path d="M660,702l-2.43-.11c-2.74-3.86-2.05-7.35,1.12-10.8h22.92c.77,4.19.1,8.48.39,12.72s-.49,8.63-.1,13,.08,8.59.08,12.88h-3.53l-.14,1,3.21.58c.39,3.72.44,3.84-2.16,4.89a47.44,47.44,0,0,1-5.79,1.51c1.36,1.9,3,1.24,4.27,1.31,3.71.2,3.93.43,4.17,3.91.11,1.59.61,3.14.88,4.72.22,1.31-2,2.54-.11,4,.19.16-.88,1.86-1.45,3,.8,2,2.79,4.1.88,6.93-.49.72.14,2.17.19,3.29a11.88,11.88,0,0,1,0,3.17c-.79,3.39-.84,3.39,2.56,5,2,.94,2.32,1.58,1.61,3.85-.32,1-.72,2.07-1.12,3.2L682.69,779c-.13.36-.36.69-.28.8.92,1.34,1.82,2.7,2.84,4,1.41,1.74.81,3-1.08,4.34l-3.63-2.37,1.35,3.11c-.83.39-1.87,1.31-2.5,1.09-3.05-1.1-6,.25-9,.12s-6,.11-9-.08a29.23,29.23,0,0,1-4.78-1c-.14-2.23-.22-3.73-.33-5.23a24.06,24.06,0,0,1-.3-3.41c.39-5.57-.93-11.21.87-16.74.33-1-.84-2.45-.85-3.69-.08-9-.2-18,.08-27,.06-1.91-.45-4.19.44-5.74,1.11-1.93-1.19-3.77.43-5.39-1.36-3-1.06-6.12-1-9.21s.52-6.11.76-8.77L660,702c1.36.2,2.29-.29,2.93-1.83A2.35,2.35,0,0,0,660,702ZM667,742l.32.8.41-.41L667,742l-.31-.8-.41.41Zm6.29-26.63-3-1.23-.47.64,1.62,2.41ZM677,766.21,674,768.67C675.69,769.13,676.84,769.35,677,766.21Zm-4.16-4h-.64c.06.49.12,1,.19,1.47a.89.89,0,0,0,.28,0C672.72,763.17,672.77,762.68,672.82,762.19Z" transform="translate(-114.82 -166.21)" style="fill:#fec30b"/><path d="M1259,702l-2.43-.11c-2.74-3.86-2.05-7.35,1.12-10.8h22.92c.77,4.19.1,8.48.39,12.72s-.49,8.63-.1,13,.08,8.59.08,12.88h-3.53l-.14,1,3.69.67c-.18,1.22,0,2.78-.64,3.56a8.59,8.59,0,0,1-3.77,2,22.28,22.28,0,0,1-4.19.49c1.53,2.12,3.13,1.47,4.43,1.54,3.71.2,3.93.43,4.17,3.91.11,1.59.61,3.14.88,4.72.22,1.31-2,2.54-.11,4,.19.16-.88,1.86-1.45,3,.8,2,2.79,4.1.88,6.93-.49.72.13,2.17.19,3.29a11.88,11.88,0,0,1,0,3.17c-.79,3.39-.85,3.39,2.56,5,2,.94,2.31,1.57,1.62,3.85-.28.92-.59,1.83-.9,2.73,0,.13-.23.21-.43.39l-2.55-1c-.13.36-.36.69-.28.8.92,1.34,1.82,2.7,2.84,4,1.41,1.74.81,3-1.08,4.34l-3.63-2.36,1.35,3.11c-.83.39-1.87,1.31-2.5,1.09-3.05-1.1-6,.25-9,.12s-6,.11-9-.08a29.29,29.29,0,0,1-4.79-1c-.14-2.23-.21-3.73-.33-5.23a24,24,0,0,1-.3-3.41c.39-5.57-.93-11.21.87-16.74.33-1-.84-2.45-.85-3.69-.08-9-.2-18,.08-27,.06-1.91-.45-4.19.44-5.74,1.11-1.93-1.19-3.77.43-5.39-1.36-3-1.06-6.12-1-9.21s.52-6.11.76-8.77L1259,702c1.35.2,2.29-.29,2.93-1.83A2.35,2.35,0,0,0,1259,702Zm7,39.92.32.8.41-.41-.8-.32-.31-.8-.41.41Zm3.66-28.21c-1.32,1.92.09,2.31.81,3.22l1.45-1.54Zm6.39,55c-1.15-1.8-1.15-1.8-3.18.25Zm-4.25-6.51h-.64c0,.5.1,1,.16,1.49a.9.9,0,0,0,.28,0C1271.71,763.19,1271.77,762.69,1271.83,762.19Z" transform="translate(-114.82 -166.21)" style="fill:#fec30b"/><path d="M403,784h2.76v5.5c-1.4,1.15-2.49.33-3.51-.9L403,784Z" transform="translate(-114.82 -166.21)" style="fill:#fec30b"/><path d="M290,784h2.76v5.5c-1.4,1.15-2.49.33-3.51-.9L290,784Z" transform="translate(-114.82 -166.21)" style="fill:#fec30b"/><path d="M1028,786l-.41,3.41c-2-2.54-2-2.54.49-3.34Z" transform="translate(-114.82 -166.21)" style="fill:#fec30b"/><path d="M744.18,189a15.72,15.72,0,0,0-15.79-15.79H677.51A15.72,15.72,0,0,0,661.72,189V515.38c0,11.7-11.11,12.87-15.21,12.87s-15.21-1.17-15.21-12.87V189a15.72,15.72,0,0,0-15.79-15.79H564.63A15.72,15.72,0,0,0,548.84,189V508.36c0,21.58,6.25,40.74,17.63,57a7.79,7.79,0,0,0,1.41.66,2.42,2.42,0,0,1,1.11.85c1.66,2.09,4,2.63,6.46,3.15a35.53,35.53,0,0,1,14.06,6.08c-6.22-.16-11.47-2-17.22-3.24q1.87,2.19,3.87,4.29a6.78,6.78,0,0,0,1.31.22c2.45,0,4.92.48,7.38.3,5-.36,10.05.64,15-1.2,1.78-.66,3.92-.18,5.92.19,8.6,1.59,17.21,3.2,25.86,4.55,6.14,1,12.44,1.09,18.51,2.34,7.89,1.62,15.89,2.45,23.8,3.86,3.23.58,6.47.94,9.63-.51a25.8,25.8,0,0,1,4.25-1.64c1.78-.47,3.25-1,3.7-3.12.12-.59,1-1,1.77-.92-1.24-1.32-3-1-4.54-1.32a8.29,8.29,0,0,1-4.23-2.21c-1.17-1.11-2.35-2.08-1.17-3.85,1-1.54,3-2.38,4.62-1.42,2.08,1.24,4.42,1.56,6.61,2.37,4.11,1.52,4.35,2,2,5.5l1.86.89a8.68,8.68,0,0,0,8.69-.53,34.06,34.06,0,0,0,5.1-4.3,10.75,10.75,0,0,1,4.11-2.62,54.65,54.65,0,0,0,5.66-2.34c14.28-17.41,22.19-38.65,22.19-63ZM696.41,572.22c-1.73,0-3.76-1.29-3.8-2.47,0-1.36,1.85-2.63,4-2.66,2,0,3.14.73,3.14,2S697.84,572.2,696.41,572.22Zm-143.84,2.24c-.71,0-1.44-.06-2.21,0l-.47,0c-2.47.14-2.69.58-5.11-1.28a23,23,0,0,1-5.53-6.76c-.59-.48-1.14-1.28-.51-1.75a6.1,6.1,0,0,0,1.64-2.48l1.89.45c.78-.77.18-1.81.56-2.63a2.07,2.07,0,0,1-.79-1.51c-.52-5.34-1.45-10.64-1.4-16a42.6,42.6,0,0,0-.76-6.27c-.64-4.66-2.14-9.16-2.66-13.81-.41-3.58-.75-6.17-.22-8.94l-.31-1.22a37.36,37.36,0,0,1-1-7.82V259.82c0-28.07-10.53-52-29.24-70.76-17.55-17.55-42.69-22.81-68.43-22.81s-50.3,5.26-68.43,22.81c-18.72,18.71-29.24,42.69-29.24,70.76V508.36c0,28.07,10.53,52,29.24,70.76a67.51,67.51,0,0,0,16,11.79c.76.28,1.52.56,2.28.81,2.32.78,4.66,1.56,7,2.33,4.1,1.35,8.14,3.05,12.35,3.81a76.42,76.42,0,0,0,12.94.87,146.05,146.05,0,0,1,29.54,2.7,130.54,130.54,0,0,0,23.6-3.82,6,6,0,0,1,5.06.68l95,57.7ZM378.72,547.84a3.77,3.77,0,0,1-1.17.76c-2.51.92-5.26.84-6.94,1.78-2.94,0-4.8-.5-6-2.45s-.72-3.54,1.17-4.44a9.47,9.47,0,0,1,3-1c3.35-.39,6.31,1.23,9.47,1.77C380.09,544.63,380.19,546.51,378.72,547.84ZM453.23,485v30.37c0,11.7-11.11,12.87-15.21,12.87s-15.21-1.17-15.21-12.87V252.8c0-11.7,11.11-12.87,15.21-12.87s15.21,1.17,15.21,12.87V478.47c1.54.51,3.33.95,3.4,2.7S455,484,453.23,485Zm20.12,16.79a6.65,6.65,0,0,1-1.18.5c-1.33.3-2.74.31-3.15-1.26-.34-1.3,1-1.64,1.9-2.1a12.46,12.46,0,0,1,1.56-.53C472.95,499.68,473.59,500.54,473.35,501.8Zm.78-6c-4-3.34-8.48-6.24-11.14-10.91-1.45-2.53-2.68-5.23-.77-8.35a7.4,7.4,0,0,0,6.06,3.84,2.88,2.88,0,0,1,1.77,1.08c3.25,3.43,6.11,7.11,7.54,11.72.28.91.68,1.89-.21,2.6A2.44,2.44,0,0,1,474.13,495.76Zm4.7,19.65a2.65,2.65,0,0,1-3.1-2.25,4.22,4.22,0,0,1,5.7,0C481.25,514.79,480.19,515.28,478.84,515.41Zm7.54-2a11.37,11.37,0,0,1-6.51-3.14c-1.06-1.13-.75-2.09.71-2.62C483,506.8,488,509,489,511.31,489.46,512.59,488.52,513.47,486.37,513.44Zm44.9,40c-1.41-.13-3.44-1.73-3.29-2.7.21-1.28.91-2.14,2.24-2,1.73.06,3.62,1.65,3.62,2.92C533.84,552.65,532.54,553.55,531.27,553.43ZM229.54,166.21c-25.73,0-50.3,5.26-68.43,22.81-18.71,18.71-29.24,42.69-29.24,70.76v43.38c0,28.07,10.53,52,29.24,70.76l78.74,78.71a17.65,17.65,0,0,1,4.92,12.67l0,50.08c0,11.7-11.11,12.87-15.21,12.87s-15.21-1.17-15.21-12.87V466.6c-.07-10.42-7.17-17.5-17.62-17.57l-47.27,0c-10.42.07-17.5,7.18-17.57,17.62v41.73A99,99,0,0,0,141,550.71a25,25,0,0,0,4.72,4.74c3.1,2.22,6.69,2.21,10.1,3.68a29.71,29.71,0,0,0,8.67,2.41,2.6,2.6,0,0,1,2.56,1.88c-5.93,1.28-10.87-2.82-16.52-2.53.29,1,1.18.37,1.49.83-1.26.84-2.49-.82-3.76-.23-.09.71.6,1.24,0,1.76l-.19,0c.63.94,1.27,1.87,1.93,2.79,2.7-.59,5.2.53,7.74,1.24,1.16-.44.61-2,2.08-2.7a11.08,11.08,0,0,1,5.25,1.73c-.08,1.54-1.06,1.75-1.93,1.36-1.82-.82-3.24-.27-4.64.85-.21.27-.66.72-.61.79,1.21,1.61.46,3.14-.46,4.65l6.74,1.6c.57.13,1.56.32,1.43.78-.58,2.13,1,1.77,2.11,2.09,7.5,2.16,15.14,3.87,22.47,6.61a4.36,4.36,0,0,0,2.38.43c5.36-1.12,10.39.44,15.49,1.72,3.38.85,6.6,2.17,10,2.93,3.6.79,7.48,1.2,10.59,3.42,1.86,1.33,3.9,1.5,5.94,1.79a6.53,6.53,0,0,0,5.89-2l.71-.91c-7.53-3-15.15-5.72-22.56-8.86s-15.08-5.82-22.62-8.73c.53-1.42,1.28-1.21,1.93-1,4,1.21,8.17,2.17,11.92,4.21a6.76,6.76,0,0,0,1.24.63c8.78,2.64,17.08,6.5,25.59,9.85,3.59,1.41,7.48,2,10.82,4.08,2.47,0,4.94.14,7.4,0,2-.1,4.09.2,5.85-.95,3.33-2.18,7.17-3,10.92-3.67,1.92-.34,5.19-1.54,6.92-.06,1,.86,1.14,2.47,1.43,3.94A72,72,0,0,0,298,579.12c18.72-18.71,29.24-42.69,29.24-70.76V465c0-28.07-10.53-52-29.24-70.76l-78.74-78.71a17.62,17.62,0,0,1-4.92-12.67l0-50.08c0-11.7,11.11-12.87,15.21-12.87s15.21,1.17,15.21,12.87v48.78c.07,10.42,7.17,17.5,17.62,17.57l47.27,0c10.42-.07,17.5-7.17,17.57-17.62V259.78c0-28.07-10.53-52-29.24-70.76C280.41,171.47,255.27,166.21,229.54,166.21ZM178.66,574.69c-1-.67-2-1.43-3.19-1.1-3,.83-5.4-.87-8-1.54-1.24-.31-1.83-1-1.21-2.66a38.55,38.55,0,0,1,17.55,7.24C181.56,576.73,180.1,575.66,178.66,574.69Zm8.72-3.67a6.94,6.94,0,0,1,6.36,1.49C191.09,573,189.06,572.74,187.38,571ZM169.8,564.6a11,11,0,0,1,5.85,1.93c1,.66,2.14.65,3.15,1.23.49.28.69.49.65,1a11.46,11.46,0,0,1-2.6-1.09C174.51,566.66,171.62,567.27,169.8,564.6Zm720.9,18.74c-2.72-.42-5.39-1.2-8.14-1.47a12.65,12.65,0,0,0-3.32.1c-.14-.4-.29-.79-.4-1.2a20,20,0,0,1,3.47-.13c7,.42,14.05.91,21.09,1.25a57.39,57.39,0,0,1,9.66,1.82c3.66.83,7.38,1.29,11.09,1.84.86.77,2.06.25,3.75,1.12A73.06,73.06,0,0,1,913.75,589,162.64,162.64,0,0,0,890.7,583.34Zm56.4-26.21c2-1.94,4.05-1.87,6.18-.83s4.49.93,6.74.93L898.57,188.46c-1.76-8.77-9.94-15.79-18.71-15.79H826.63c-8.19,0-17,7-18.13,15.79L745.09,568.93l.1.11a4.71,4.71,0,0,1,1.09,1.92c.43,1.07.36,2.2,1,3.31-1,.18-2-.34-2.17.9-.65,4.38-.82,8.66,2.61,12.38,3.94-1.78,8-1.66,12.14-1.16,4.9.6,9.74,1,14.64-.4,3.71-1.06,7.6-2.18,11.46-1.06a40.53,40.53,0,0,0,11.17,1.25c3.06,0,6.11.07,9.17.32,3.39.28,6.91.52,10.18-.48a8.83,8.83,0,0,1,6.77.31,2.63,2.63,0,0,0,2.16-.22,19.36,19.36,0,0,0,3-5.83l1.09-13.22c-1.79-1.29-4.36-2.25-4-4.8s-.31-4.3-2.91-5.18a4.14,4.14,0,0,1,4.06-2.63c1.33,0,2.62.76,3.86.6L832,536a12.44,12.44,0,0,0-2.09-1.44c-.5-.27-6.23-2.78-6-3.27a1.51,1.51,0,0,1,1.7-.77,31.83,31.83,0,0,0,11.21-.86,4.32,4.32,0,0,1,4.2.93h11.54c-1-1.65-3.35-2-4.82-3.06-.87-.6-2-.85-1.52-2.52,3.49-.15,6.49,1.39,9.43,3a10.08,10.08,0,0,1,3.32,2.57h15.54l3.26,39.67c2.75,1.45,6.28,2,9,2.52a31,31,0,0,1,11.29,4.38c.11.07,0,.42.07.87a2.48,2.48,0,0,1-1.93,0c.26-.36,1.3-.16.76-1.11-2.66-.17-5.33-.31-8-.53-1.43-.12-2.62-.07-2.65,1.9,2.1.19,4.19.5,6.29.55,8,.21,15.92,1,23.9,1.21a70.24,70.24,0,0,1,14.89,2.22c6.58,1.64,13.22,3.33,20.14,2.76,3.06-.25,6.85,1.66,10.29,2a14.65,14.65,0,0,0,1.55-9l-2-12a37.24,37.24,0,0,1-3.91-1.2C956.61,564.36,945.66,558.56,947.1,557.13Zm-130.93-12.6c-1-.18-2.52-.27-2.38-1.78s1.66-1.35,2.79-1.45,2.3.27,2.27,1.53C818.82,544.29,817.51,544.49,816.17,544.53ZM826.26,548c1,.81.46,1.72-.29,2.36-1.45,1.23-3,.77-4.46.16-.78-1.73.21-2.42,1.48-3A3,3,0,0,1,826.26,548Zm12.07-80,15.21-164.92L868.74,468Zm86.76,90.25c-1-.11-2.22-.22-2.19-1.65,0-1.09.79-1.57,1.82-1.67,1,.19,2.22.37,2.21,1.7A1.57,1.57,0,0,1,925.09,558.26ZM941.8,547.1c1.15-4.84,1.94-5.41,4.63-3.23C944.89,545.17,943.18,545.58,941.8,547.1Zm206,10.47a4.09,4.09,0,0,1-2.79-4.1c.15-2,1.46-2.84,3.2-3.24.79-.18,1.07-.85,1.52-1.46a27,27,0,0,1-2.63-9.54c1.77-1.49,3.58-.08,4.93-.43l2.78-2.39c-3.08-4-2.5-5.84,2.14-7.13a6.7,6.7,0,0,1,4.45.17v0a7.89,7.89,0,0,0,1.67,1.17,107.23,107.23,0,0,0,6.81-38.07V273.85c0-28.66-10.53-54.39-29.83-73.69a97.37,97.37,0,0,0-68.42-27.49H989.78A15.72,15.72,0,0,0,974,188.46V578a15.71,15.71,0,0,0,4.32,10.84,5.22,5.22,0,0,0,.93-.51c2.52-2,5.17-3.11,8.47-2.15,3,.87,6.08,1.17,8.65,3.48,1.45,1.3,2.83,2.73,4.21,4.13h18.53a7.59,7.59,0,0,0,1.16-.91,4,4,0,0,1,2.95-.95,34.56,34.56,0,0,0,5.64-.17c2.66-.46,2.93.7,3.4,2h2.66a9.71,9.71,0,0,1,2.68-1.9,7.28,7.28,0,0,0,3.84-5c.09-.46.76-.88,1.24-1.19,2.42-1.5,4.66-.43,5,2.4.06.44-.29,1.13.16,1.31,2,.8,2.57,2.56,3.06,4.35h17.88a22,22,0,0,0,2.61-.59,33.87,33.87,0,0,0,5.25-2.32c3.16-1.72,6.58-2.95,9.84-4.44,3.6-1.66,7.59-4.19,12.06-2,.27.14.69,0,1,0,5.86-.79,9.55-.62,12.18.87a97.26,97.26,0,0,0,28.31-19A101.94,101.94,0,0,0,1147.8,557.57ZM997,511c-1,1.78-2.07,2-3.67.46C994.63,509.53,995.72,509.7,997,511Zm-10.73,9.39a7.3,7.3,0,0,1,3.4-.48c1.08.1,1.82.49,2,1.51a2,2,0,0,1-1.5,2.42,14.7,14.7,0,0,1-2.56.59c-1.76.12-2.94-.19-3.25-1.52S985.15,520.87,986.32,520.42Zm13.9,30.06c-1.43,3.16-7.32,5.15-10.41,3.52-1.43-.76-1.61-1.8-.72-4.82a11.71,11.71,0,0,1-3-1.9c-.33-1.46.48-2.33,1.16-3.25-.22-.89-1-1.28-1.54-1.89-.88-1-1.86-2.17-.55-3.3a2.71,2.71,0,0,1,3.83.22c1.23,1.23,2.51,2.49,2.46,4.54,2.24.61,4.39,1.12,6.48,1.8C1000.62,546.27,1001.34,548,1000.21,550.48Zm2.61,20.31a1.9,1.9,0,0,1-1-2.59.94.94,0,0,1,.42-.54c1.52-.61,1.1-2.95,3.41-3.33a23.54,23.54,0,0,0,3.5,3.72C1007.86,571.24,1005.54,572.2,1002.83,570.79Zm23.79-149.3a16.14,16.14,0,0,1,2-.49c1.7-.17,3.08.79,3.09,2.06s-1.19,2.15-3.45,2.09c-.4-.13-1.18-.33-1.93-.63a1.53,1.53,0,0,1-1-1.63A1.49,1.49,0,0,1,1026.62,421.49Zm-4.05,105.92c1.56-1.72,5.42-2.52,7.44-1.4s3.08,2.84,4.36,4.46c.86,1.09.29,2.48-.85,3.39a5.82,5.82,0,0,1-3.54,1.36,8.7,8.7,0,0,1-7.63-3.64A3,3,0,0,1,1022.56,527.41Zm2.95,63.07c-1.37.8-2.29,0-3.45-1.17,1.44-1.14,2.55-1.45,3.63-.32A.94.94,0,0,1,1025.51,590.48Zm9.32-6.27a3.79,3.79,0,0,1-1.88,1.51c-2.51.39-5.05.81-7.56-.16a2.13,2.13,0,0,1-1.49-1.76c-.14-1,.6-1.49,1.33-1.86a9.14,9.14,0,0,1,4.8-.8,31.71,31.71,0,0,1,3.48,0A1.81,1.81,0,0,1,1034.83,584.21Zm51.45-77.6c0,12.28-4.68,18.13-14.62,18.13h-14V241.68h14c8.77,0,14.62,5.85,14.62,18.13Zm57,18.86c1.08.08,2.52.28,2.66,1.69.15,1.62-1.23,1.67-2.39,1.75s-2.24-.09-2.26-1.53A1.77,1.77,0,0,1,1143.26,525.47Zm-16.11,23.82c-1,.52-1,.52-3.72.43a10.34,10.34,0,0,1-2.08-.12,1.43,1.43,0,0,1-.85-2.41c1.4-1.34,2.73-2.85,4.83-3.23a3.13,3.13,0,0,1,3.76,1.74C1129.7,546.95,1128.91,548.34,1127.15,549.29Zm10.78,1.37c2.61-1.53,3.49-1.2,4.71,2C1139.37,553.29,1139.31,553.26,1137.93,550.66Z" transform="translate(-114.82 -166.21)"/></svg>